# xmcd
#
# Track frame offsets:
#	150
#	14250
#	33207
#	54703
#	71871
#	88298
#	109534
#	119724
#	134631
#	151178
#	164930
#	179826
#	190086
#	204274
#	213912
#	231776
#	243800
#	256015
#	270345
#	284608
#	302268
#	320688
#	337410
#
# Disc length: 4716 seconds
#
# Revision: 0
# Processed by: cddbd v1.4PL0 Copyright (c) Steve Scherf et al.
# Submitted via: audiograbber 1.82.01
#
DISCID=5b126a17
DTITLE=Chris Isaak - Life Will Go On
DYEAR=1900
DGENRE=
TTITLE0=Life Will Go On
TTITLE1=Lie To Me
TTITLE2=Wicked Game
TTITLE3=Worked It Out Wrong
TTITLE4=Waiting For The Rain To Fall
TTITLE5=Kings Of The Highway
TTITLE6=Sweet Leilani
TTITLE7=Funeral In The Rain
TTITLE8=Waiting
TTITLE9=Back On Your Side
TTITLE10=Heart Full Of Soul
TTITLE11=Return To Me
TTITLE12=5-15
TTITLE13=7 Lonely Nights
TTITLE14=Shadows In A Mirror
TTITLE15=Forever Blue
TTITLE16=Black Flowers
TTITLE17=Dont Get So Down On Yourself
TTITLE18=Graduation Day
TTITLE19=Blue Spanish Sky
TTITLE20=Nothing's Changed
TTITLE21=Breaking Apart
TTITLE22=Cant Do A Thing (To Stop Me)
EXTD=
EXTT0=
EXTT1=
EXTT2=
EXTT3=
EXTT4=
EXTT5=
EXTT6=
EXTT7=
EXTT8=
EXTT9=
EXTT10=
EXTT11=
EXTT12=
EXTT13=
EXTT14=
EXTT15=
EXTT16=
EXTT17=
EXTT18=
EXTT19=
EXTT20=
EXTT21=
EXTT22=
PLAYORDER=
